<svg xmlns="http://www.w3.org/2000/svg" width="1200" height="630" viewBox="0 0 1200 630" role="img" aria-label="CALL2CONFIRM Open Graph">
  <defs>
    <linearGradient id="bg" x1="0" y1="0" x2="1" y2="1">
      <stop offset="0" stop-color="#001B33"/>
      <stop offset="1" stop-color="#00213D"/>
    </linearGradient>
    <pattern id="grid" width="46" height="46" patternUnits="userSpaceOnUse">
      <path d="M46 0H0v46" fill="none" stroke="rgba(255,255,255,0.06)" stroke-width="1"/>
    </pattern>
    <filter id="shadow" x="-20%" y="-20%" width="140%" height="140%">
      <feDropShadow dx="0" dy="18" stdDeviation="24" flood-color="#000000" flood-opacity="0.28"/>
    </filter>
  </defs>
  <rect width="1200" height="630" fill="url(#bg)"/>
  <rect width="1200" height="630" fill="url(#grid)" opacity="0.85"/>
  <circle cx="1030" cy="120" r="190" fill="#00AEEF" opacity="0.14"/>
  <circle cx="130" cy="560" r="230" fill="#22C55E" opacity="0.10"/>
  <g transform="translate(78 74)">
    <rect width="104" height="104" rx="24" fill="#FFFFFF"/>
    <path d="M30 62c-7-11-3.6-25.8 7.4-32.6 11-7 25.8-3.6 32.6 7.4" fill="none" stroke="#00AEEF" stroke-width="8" stroke-linecap="round"/>
    <path d="M76 44c7 11 3.6 25.8-7.4 32.6-11 7-25.8 3.6-32.6-7.4" fill="none" stroke="#22C55E" stroke-width="8" stroke-linecap="round"/>
    <text x="52" y="62" text-anchor="middle" font-family="Inter, Arial, sans-serif" font-size="28" font-weight="900" fill="#001B33">C2</text>
  </g>
  <text x="204" y="120" font-family="Inter, Arial, sans-serif" font-size="42" font-weight="900" fill="#FFFFFF">CALL2CONFIRM</text>
  <text x="204" y="158" font-family="Inter, Arial, sans-serif" font-size="22" font-weight="700" fill="#2FC7F7">La qualité au bout du fil</text>
  <text x="78" y="282" font-family="Inter, Arial, sans-serif" font-size="62" font-weight="900" fill="#FFFFFF">Confirmer mieux.</text>
  <text x="78" y="356" font-family="Inter, Arial, sans-serif" font-size="62" font-weight="900" fill="#FFFFFF">Livrer plus.</text>
  <text x="78" y="430" font-family="Inter, Arial, sans-serif" font-size="62" font-weight="900" fill="#2FC7F7">Perdre moins.</text>
  <text x="82" y="512" font-family="Inter, Arial, sans-serif" font-size="25" font-weight="600" fill="rgba(255,255,255,0.78)">Confirmation professionnelle des commandes e-commerce COD au Maroc</text>
  <g transform="translate(780 178)" filter="url(#shadow)">
    <rect width="330" height="302" rx="28" fill="#FFFFFF"/>
    <rect x="26" y="30" width="278" height="56" rx="16" fill="#F5F7FA"/>
    <circle cx="57" cy="58" r="17" fill="#00AEEF"/>
    <rect x="86" y="47" width="132" height="12" rx="6" fill="#001B33" opacity="0.88"/>
    <rect x="86" y="66" width="92" height="9" rx="4" fill="#64748B" opacity="0.55"/>
    <rect x="26" y="113" width="278" height="44" rx="12" fill="#22C55E" opacity="0.12"/>
    <rect x="48" y="129" width="86" height="12" rx="6" fill="#001B33" opacity="0.72"/>
    <rect x="212" y="125" width="68" height="20" rx="10" fill="#22C55E"/>
    <rect x="26" y="173" width="278" height="44" rx="12" fill="#00AEEF" opacity="0.12"/>
    <rect x="48" y="189" width="95" height="12" rx="6" fill="#001B33" opacity="0.72"/>
    <rect x="206" y="185" width="74" height="20" rx="10" fill="#00AEEF"/>
    <rect x="26" y="233" width="278" height="44" rx="12" fill="#EF4444" opacity="0.10"/>
    <rect x="48" y="249" width="102" height="12" rx="6" fill="#001B33" opacity="0.72"/>
    <rect x="202" y="245" width="78" height="20" rx="10" fill="#EF4444" opacity="0.85"/>
  </g>
</svg>
